<mxfile host="65bd71144e">
    <diagram id="S2q3boM4fvoWWkb_evQM" name="Page-1">
        <mxGraphModel dx="633" dy="536" grid="1" gridSize="10" guides="1" tooltips="1" connect="1" arrows="1" fold="1" page="1" pageScale="1" pageWidth="1169" pageHeight="827" math="0" shadow="0">
            <root>
                <mxCell id="0"/>
                <mxCell id="1" parent="0"/>
                <mxCell id="4" value="" style="edgeStyle=none;html=1;endArrow=none;endFill=0;" edge="1" parent="1" source="2" target="3">
                    <mxGeometry relative="1" as="geometry"/>
                </mxCell>
                <mxCell id="2" value="자연 선택에 의한 진화" style="rounded=1;whiteSpace=wrap;html=1;" vertex="1" parent="1">
                    <mxGeometry x="311" y="140" width="110" height="50" as="geometry"/>
                </mxCell>
                <mxCell id="3" value="부모의 투자와 성 선택 이론" style="whiteSpace=wrap;html=1;rounded=1;fontSize=11;" vertex="1" parent="1">
                    <mxGeometry x="306" y="220" width="120" height="60" as="geometry"/>
                </mxCell>
                <mxCell id="6" value="기생충-숙주 공동 진화 이론" style="whiteSpace=wrap;html=1;rounded=1;fontSize=11;" vertex="1" parent="1">
                    <mxGeometry x="161" y="220" width="120" height="60" as="geometry"/>
                </mxCell>
                <mxCell id="7" value="가설 2: 수컷이 가끔 자식에게 자원을 주는 경우에는 암컷이 짝을 선택할 때 자원을 줄 수 있는 능력과 자발성을 일부 기준으로 삼는다." style="whiteSpace=wrap;html=1;rounded=1;fontSize=11;" vertex="1" parent="1">
                    <mxGeometry x="306" y="310" width="120" height="90" as="geometry"/>
                </mxCell>
                <mxCell id="8" value="상호적 이타성 이론" style="whiteSpace=wrap;html=1;rounded=1;fontSize=11;" vertex="1" parent="1">
                    <mxGeometry x="451" y="220" width="120" height="60" as="geometry"/>
                </mxCell>
                <mxCell id="9" value="가설 1: 양 성에 대한 부모의 투자에 차이가 나는 종은 투자를 많이 받는 성이 짝짓기 상대를 선택할때 선택권을 더 많이 가진다." style="whiteSpace=wrap;html=1;rounded=1;fontSize=11;" vertex="1" parent="1">
                    <mxGeometry x="161" y="310" width="120" height="90" as="geometry"/>
                </mxCell>
                <mxCell id="10" value="가설 3: 부모로서 자식에게 투자를 덜 하는 성의 구성원들은 투자를 많이 하는 성과 짝짓기할 기회를 얻기 위해 서로간에 더 치열한 경쟁을 벌인다." style="whiteSpace=wrap;html=1;rounded=1;fontSize=11;" vertex="1" parent="1">
                    <mxGeometry x="451" y="310" width="120" height="90" as="geometry"/>
                </mxCell>
                <mxCell id="11" value="" style="edgeStyle=none;html=1;endArrow=none;endFill=0;exitX=0.5;exitY=1;exitDx=0;exitDy=0;entryX=0.5;entryY=0;entryDx=0;entryDy=0;" edge="1" parent="1" source="2" target="6">
                    <mxGeometry relative="1" as="geometry">
                        <mxPoint x="376" y="200" as="sourcePoint"/>
                        <mxPoint x="376" y="230" as="targetPoint"/>
                    </mxGeometry>
                </mxCell>
                <mxCell id="12" value="" style="edgeStyle=none;html=1;endArrow=none;endFill=0;exitX=0.5;exitY=1;exitDx=0;exitDy=0;entryX=0.5;entryY=0;entryDx=0;entryDy=0;" edge="1" parent="1" source="2" target="8">
                    <mxGeometry relative="1" as="geometry">
                        <mxPoint x="376" y="200" as="sourcePoint"/>
                        <mxPoint x="231" y="230" as="targetPoint"/>
                    </mxGeometry>
                </mxCell>
                <mxCell id="13" value="" style="edgeStyle=none;html=1;endArrow=none;endFill=0;" edge="1" parent="1">
                    <mxGeometry relative="1" as="geometry">
                        <mxPoint x="366" y="280" as="sourcePoint"/>
                        <mxPoint x="366" y="310" as="targetPoint"/>
                    </mxGeometry>
                </mxCell>
                <mxCell id="14" value="" style="edgeStyle=none;html=1;endArrow=none;endFill=0;exitX=0.5;exitY=1;exitDx=0;exitDy=0;entryX=0.5;entryY=0;entryDx=0;entryDy=0;" edge="1" parent="1">
                    <mxGeometry relative="1" as="geometry">
                        <mxPoint x="366" y="280" as="sourcePoint"/>
                        <mxPoint x="221" y="310" as="targetPoint"/>
                    </mxGeometry>
                </mxCell>
                <mxCell id="15" value="" style="edgeStyle=none;html=1;endArrow=none;endFill=0;exitX=0.5;exitY=1;exitDx=0;exitDy=0;entryX=0.5;entryY=0;entryDx=0;entryDy=0;" edge="1" parent="1">
                    <mxGeometry relative="1" as="geometry">
                        <mxPoint x="366" y="280" as="sourcePoint"/>
                        <mxPoint x="511" y="310" as="targetPoint"/>
                    </mxGeometry>
                </mxCell>
                <mxCell id="16" value="예측 2: 여자는 자신과 자식에게 투자를 아끼지 않을 것이라는 단서를 보여주는 남자를 선택하려는 선호가 진화했다." style="whiteSpace=wrap;html=1;rounded=1;fontSize=11;" vertex="1" parent="1">
                    <mxGeometry x="306" y="430" width="120" height="90" as="geometry"/>
                </mxCell>
                <mxCell id="17" value="예측 1: 여자는 지위가 높은 남자를 선택하려는 선호가 진화했고, 그런 남자에게 매력을 느낀다." style="whiteSpace=wrap;html=1;rounded=1;fontSize=11;" vertex="1" parent="1">
                    <mxGeometry x="161" y="430" width="120" height="90" as="geometry"/>
                </mxCell>
                <mxCell id="18" value="예측 3: 여자는 '짝짓기 시장'에서 더 잘 할 수 있다면, 기대했던 자원을 주는 데 실패한 남자와 이혼할 것이다." style="whiteSpace=wrap;html=1;rounded=1;fontSize=11;" vertex="1" parent="1">
                    <mxGeometry x="451" y="430" width="120" height="90" as="geometry"/>
                </mxCell>
                <mxCell id="19" value="" style="edgeStyle=none;html=1;endArrow=none;endFill=0;" edge="1" parent="1">
                    <mxGeometry relative="1" as="geometry">
                        <mxPoint x="366" y="400" as="sourcePoint"/>
                        <mxPoint x="366" y="430" as="targetPoint"/>
                    </mxGeometry>
                </mxCell>
                <mxCell id="20" value="" style="edgeStyle=none;html=1;endArrow=none;endFill=0;exitX=0.5;exitY=1;exitDx=0;exitDy=0;entryX=0.5;entryY=0;entryDx=0;entryDy=0;" edge="1" parent="1">
                    <mxGeometry relative="1" as="geometry">
                        <mxPoint x="366" y="400" as="sourcePoint"/>
                        <mxPoint x="221" y="430" as="targetPoint"/>
                    </mxGeometry>
                </mxCell>
                <mxCell id="21" value="" style="edgeStyle=none;html=1;endArrow=none;endFill=0;exitX=0.5;exitY=1;exitDx=0;exitDy=0;entryX=0.5;entryY=0;entryDx=0;entryDy=0;" edge="1" parent="1">
                    <mxGeometry relative="1" as="geometry">
                        <mxPoint x="366" y="400" as="sourcePoint"/>
                        <mxPoint x="511" y="430" as="targetPoint"/>
                    </mxGeometry>
                </mxCell>
                <mxCell id="23" value="일반 진화론" style="text;html=1;strokeColor=none;fillColor=none;align=center;verticalAlign=middle;whiteSpace=wrap;rounded=0;fontSize=11;fontStyle=1" vertex="1" parent="1">
                    <mxGeometry x="59" y="150" width="60" height="30" as="geometry"/>
                </mxCell>
                <mxCell id="24" value="중간 단계 &lt;br&gt;진화 이론들" style="text;html=1;strokeColor=none;fillColor=none;align=center;verticalAlign=middle;whiteSpace=wrap;rounded=0;fontSize=11;fontStyle=1" vertex="1" parent="1">
                    <mxGeometry x="59" y="235" width="60" height="30" as="geometry"/>
                </mxCell>
                <mxCell id="25" value="구체적인 &lt;br&gt;진화가설들" style="text;html=1;strokeColor=none;fillColor=none;align=center;verticalAlign=middle;whiteSpace=wrap;rounded=0;fontSize=11;fontStyle=1" vertex="1" parent="1">
                    <mxGeometry x="59" y="340" width="60" height="30" as="geometry"/>
                </mxCell>
                <mxCell id="26" value="가설에서 도출된 구체적 예측" style="text;html=1;strokeColor=none;fillColor=none;align=center;verticalAlign=middle;whiteSpace=wrap;rounded=0;fontSize=11;fontStyle=1" vertex="1" parent="1">
                    <mxGeometry x="49" y="460" width="80" height="30" as="geometry"/>
                </mxCell>
            </root>
        </mxGraphModel>
    </diagram>
</mxfile>